<?xml version="1.0" encoding="UTF-8"?>
<!DOCTYPE svg PUBLIC "-//W3C//DTD SVG 1.1//EN" "http://www.w3.org/Graphics/SVG/1.1/DTD/svg11.dtd">
<!-- Creator: CorelDRAW 2020 (64-Bit Оценочная версия) -->
<svg xmlns="http://www.w3.org/2000/svg" xml:space="preserve" width="1000" height="700" version="1.1" style="shape-rendering:geometricPrecision; text-rendering:geometricPrecision; image-rendering:optimizeQuality; fill-rule:evenodd; clip-rule:evenodd"
 xmlns:xlink="http://www.w3.org/1999/xlink"
 xmlns:xodm="http://www.corel.com/coreldraw/odm/2003">
 <defs>
  <style type="text/css">
   <![CDATA[
    .str0 {stroke:#2B2A29;stroke-width:2.36;stroke-miterlimit:22.9256}
    .fil2 {fill:none}
    .fil1 {fill:black}
    .fil0 {fill:white}
   ]]>
  </style>
    <clipPath id="id0">
     <path d="M144.6 99.38l529.21 0 0 524.93 -529.21 0 0 -524.93z"/>
    </clipPath>
    <clipPath id="id1">
     <path d="M144.6 99.38l529.21 0 0 524.93 -529.21 0 0 -524.93z"/>
    </clipPath>
    <clipPath id="id2">
     <path d="M144.6 99.38l529.21 0 0 524.93 -529.21 0 0 -524.93z"/>
    </clipPath>
 </defs>
 <g id="Слой_x0020_1">
  <metadata id="CorelCorpID_0Corel-Layer"/>
  <g>
   <g style="clip-path:url(#id0)">
   </g>
   <g style="clip-path:url(#id1)">
    <polygon class="fil0" points="140.14,95.59 677.57,95.59 677.57,628.86 140.14,628.86 "/>
    <path id="1" class="fil1" d="M184.21 578.16c-0.53,1.73 -1.5,2.48 -3.3,2.48 -0.38,0 -0.75,-0.08 -1.05,-0.15l-6.6 -1.73c-1.35,-0.37 -3.07,-0.6 -5.17,-0.6 -15.45,0 -26.03,10.73 -26.03,26.32 0,15.23 10.05,25.43 24.98,25.43 8.62,0 15.82,-3.38 20.54,-9.53l-1.42 -1.42c-5.33,5.25 -10.5,7.65 -16.87,7.65 -11.48,0 -18.45,-8.63 -18.45,-22.73 0,-13.94 6.9,-22.72 17.77,-22.72 8.1,0 13.72,4.88 16.12,13.88l1.88 0 -0.68 -16.88 -1.72 0z"/>
    <path id="2" class="fil1" d="M234.23 653.15c-0.53,1.73 -1.5,2.48 -3.3,2.48 -0.38,0 -0.75,-0.08 -1.05,-0.15l-6.6 -1.73c-1.35,-0.37 -3.08,-0.6 -5.18,-0.6 -15.44,0 -26.02,10.73 -26.02,26.33 0,15.22 10.05,25.42 24.97,25.42 8.63,0 15.83,-3.38 20.55,-9.53l-1.42 -1.42c-5.33,5.25 -10.5,7.65 -16.88,7.65 -11.47,0 -18.44,-8.63 -18.44,-22.72 0,-13.95 6.9,-22.73 17.77,-22.73 8.1,0 13.72,4.88 16.12,13.88l1.88 0 -0.68 -16.88 -1.72 0z"/>
    <path id="3" class="fil1" d="M284.25 578.16c-0.53,1.73 -1.5,2.48 -3.3,2.48 -0.38,0 -0.75,-0.08 -1.05,-0.15l-6.6 -1.73c-1.35,-0.37 -3.08,-0.6 -5.18,-0.6 -15.44,0 -26.02,10.73 -26.02,26.32 0,15.23 10.05,25.43 24.97,25.43 8.63,0 15.83,-3.38 20.55,-9.53l-1.42 -1.42c-5.33,5.25 -10.5,7.65 -16.88,7.65 -11.47,0 -18.44,-8.63 -18.44,-22.73 0,-13.94 6.89,-22.72 17.77,-22.72 8.1,0 13.72,4.88 16.12,13.88l1.88 0 -0.68 -16.88 -1.72 0z"/>
    <path id="4" class="fil1" d="M334.27 653.15c-0.53,1.73 -1.5,2.48 -3.3,2.48 -0.38,0 -0.75,-0.08 -1.05,-0.15l-6.6 -1.73c-1.35,-0.37 -3.08,-0.6 -5.18,-0.6 -15.45,0 -26.02,10.73 -26.02,26.33 0,15.22 10.05,25.42 24.97,25.42 8.63,0 15.83,-3.38 20.55,-9.53l-1.43 -1.42c-5.32,5.25 -10.49,7.65 -16.87,7.65 -11.47,0 -18.45,-8.63 -18.45,-22.72 0,-13.95 6.9,-22.73 17.78,-22.73 8.1,0 13.72,4.88 16.12,13.88l1.87 0 -0.67 -16.88 -1.72 0z"/>
    <path id="5" class="fil1" d="M384.28 578.16c-0.52,1.73 -1.5,2.48 -3.3,2.48 -0.37,0 -0.75,-0.08 -1.05,-0.15l-6.6 -1.73c-1.35,-0.37 -3.07,-0.6 -5.17,-0.6 -15.45,0 -26.02,10.73 -26.02,26.32 0,15.23 10.05,25.43 24.97,25.43 8.62,0 15.82,-3.38 20.55,-9.53l-1.43 -1.42c-5.32,5.25 -10.5,7.65 -16.87,7.65 -11.47,0 -18.45,-8.63 -18.45,-22.73 0,-13.94 6.9,-22.72 17.78,-22.72 8.09,0 13.72,4.88 16.12,13.88l1.87 0 -0.67 -16.88 -1.73 0z"/>
    <path id="6" class="fil1" d="M434.3 653.15c-0.52,1.73 -1.5,2.48 -3.3,2.48 -0.37,0 -0.75,-0.08 -1.05,-0.15l-6.6 -1.73c-1.35,-0.37 -3.07,-0.6 -5.17,-0.6 -15.45,0 -26.02,10.73 -26.02,26.33 0,15.22 10.05,25.42 24.97,25.42 8.62,0 15.82,-3.38 20.55,-9.53l-1.43 -1.42c-5.32,5.25 -10.5,7.65 -16.87,7.65 -11.47,0 -18.45,-8.63 -18.45,-22.72 0,-13.95 6.9,-22.73 17.77,-22.73 8.1,0 13.73,4.88 16.13,13.88l1.87 0 -0.67 -16.88 -1.73 0z"/>
    <path id="7" class="fil1" d="M484.32 578.16c-0.52,1.73 -1.5,2.48 -3.3,2.48 -0.37,0 -0.75,-0.08 -1.05,-0.15l-6.6 -1.73c-1.35,-0.37 -3.07,-0.6 -5.17,-0.6 -15.45,0 -26.02,10.73 -26.02,26.32 0,15.23 10.04,25.43 24.97,25.43 8.62,0 15.82,-3.38 20.55,-9.53l-1.43 -1.42c-5.32,5.25 -10.5,7.65 -16.87,7.65 -11.48,0 -18.45,-8.63 -18.45,-22.73 0,-13.94 6.9,-22.72 17.77,-22.72 8.1,0 13.73,4.88 16.13,13.88l1.87 0 -0.67 -16.88 -1.73 0z"/>
    <path id="8" class="fil1" d="M534.34 653.15c-0.53,1.73 -1.5,2.48 -3.3,2.48 -0.38,0 -0.75,-0.08 -1.05,-0.15l-6.6 -1.73c-1.35,-0.37 -3.07,-0.6 -5.17,-0.6 -15.45,0 -26.03,10.73 -26.03,26.33 0,15.22 10.05,25.42 24.98,25.42 8.62,0 15.82,-3.38 20.54,-9.53l-1.42 -1.42c-5.33,5.25 -10.5,7.65 -16.87,7.65 -11.48,0 -18.45,-8.63 -18.45,-22.72 0,-13.95 6.9,-22.73 17.77,-22.73 8.1,0 13.72,4.88 16.12,13.88l1.88 0 -0.68 -16.88 -1.72 0z"/>
    <path id="9" class="fil1" d="M584.36 578.16c-0.53,1.73 -1.5,2.48 -3.3,2.48 -0.38,0 -0.75,-0.08 -1.05,-0.15l-6.6 -1.73c-1.35,-0.37 -3.07,-0.6 -5.17,-0.6 -15.45,0 -26.03,10.73 -26.03,26.32 0,15.23 10.05,25.43 24.98,25.43 8.62,0 15.82,-3.38 20.54,-9.53l-1.42 -1.42c-5.33,5.25 -10.5,7.65 -16.87,7.65 -11.48,0 -18.45,-8.63 -18.45,-22.73 0,-13.94 6.9,-22.72 17.77,-22.72 8.1,0 13.72,4.88 16.12,13.88l1.88 0 -0.68 -16.88 -1.72 0z"/>
    <path id="10" class="fil1" d="M634.38 653.15c-0.53,1.73 -1.5,2.48 -3.3,2.48 -0.38,0 -0.75,-0.08 -1.05,-0.15l-6.6 -1.73c-1.35,-0.37 -3.08,-0.6 -5.18,-0.6 -15.44,0 -26.02,10.73 -26.02,26.33 0,15.22 10.05,25.42 24.97,25.42 8.63,0 15.83,-3.38 20.55,-9.53l-1.42 -1.42c-5.33,5.25 -10.5,7.65 -16.88,7.65 -11.47,0 -18.44,-8.63 -18.44,-22.72 0,-13.95 6.89,-22.73 17.77,-22.73 8.1,0 13.72,4.88 16.12,13.88l1.88 0 -0.68 -16.88 -1.72 0z"/>
    <path id="11" class="fil1" d="M684.39 578.16c-0.52,1.73 -1.49,2.48 -3.29,2.48 -0.38,0 -0.75,-0.08 -1.05,-0.15l-6.6 -1.73c-1.35,-0.37 -3.08,-0.6 -5.18,-0.6 -15.45,0 -26.02,10.73 -26.02,26.32 0,15.23 10.05,25.43 24.97,25.43 8.63,0 15.83,-3.38 20.55,-9.53l-1.43 -1.42c-5.32,5.25 -10.49,7.65 -16.87,7.65 -11.47,0 -18.45,-8.63 -18.45,-22.73 0,-13.94 6.9,-22.72 17.78,-22.72 8.1,0 13.72,4.88 16.12,13.88l1.87 0 -0.67 -16.88 -1.73 0z"/>
    <path id="12" class="fil1" d="M184.21 428.18c-0.53,1.73 -1.5,2.48 -3.3,2.48 -0.38,0 -0.75,-0.08 -1.05,-0.15l-6.6 -1.73c-1.35,-0.37 -3.07,-0.6 -5.17,-0.6 -15.45,0 -26.03,10.73 -26.03,26.32 0,15.23 10.05,25.43 24.98,25.43 8.62,0 15.82,-3.38 20.54,-9.53l-1.42 -1.42c-5.33,5.25 -10.5,7.65 -16.87,7.65 -11.48,0 -18.45,-8.63 -18.45,-22.73 0,-13.94 6.9,-22.72 17.77,-22.72 8.1,0 13.72,4.88 16.12,13.87l1.88 0 -0.68 -16.87 -1.72 0z"/>
    <path id="13" class="fil1" d="M234.23 503.17c-0.53,1.73 -1.5,2.48 -3.3,2.48 -0.38,0 -0.75,-0.08 -1.05,-0.15l-6.6 -1.73c-1.35,-0.37 -3.08,-0.6 -5.18,-0.6 -15.44,0 -26.02,10.73 -26.02,26.32 0,15.23 10.05,25.43 24.97,25.43 8.63,0 15.83,-3.38 20.55,-9.53l-1.42 -1.42c-5.33,5.25 -10.5,7.65 -16.88,7.65 -11.47,0 -18.44,-8.63 -18.44,-22.73 0,-13.94 6.9,-22.72 17.77,-22.72 8.1,0 13.72,4.88 16.12,13.88l1.88 0 -0.68 -16.88 -1.72 0z"/>
    <path id="14" class="fil1" d="M284.25 428.18c-0.53,1.73 -1.5,2.48 -3.3,2.48 -0.38,0 -0.75,-0.08 -1.05,-0.15l-6.6 -1.73c-1.35,-0.37 -3.08,-0.6 -5.18,-0.6 -15.44,0 -26.02,10.73 -26.02,26.32 0,15.23 10.05,25.43 24.97,25.43 8.63,0 15.83,-3.38 20.55,-9.53l-1.42 -1.42c-5.33,5.25 -10.5,7.65 -16.88,7.65 -11.47,0 -18.44,-8.63 -18.44,-22.73 0,-13.94 6.89,-22.72 17.77,-22.72 8.1,0 13.72,4.88 16.12,13.87l1.88 0 -0.68 -16.87 -1.72 0z"/>
    <path id="15" class="fil1" d="M334.27 503.17c-0.53,1.73 -1.5,2.48 -3.3,2.48 -0.38,0 -0.75,-0.08 -1.05,-0.15l-6.6 -1.73c-1.35,-0.37 -3.08,-0.6 -5.18,-0.6 -15.45,0 -26.02,10.73 -26.02,26.32 0,15.23 10.05,25.43 24.97,25.43 8.63,0 15.83,-3.38 20.55,-9.53l-1.43 -1.42c-5.32,5.25 -10.49,7.65 -16.87,7.65 -11.47,0 -18.45,-8.63 -18.45,-22.73 0,-13.94 6.9,-22.72 17.78,-22.72 8.1,0 13.72,4.88 16.12,13.88l1.87 0 -0.67 -16.88 -1.72 0z"/>
    <path id="16" class="fil1" d="M384.28 428.18c-0.52,1.73 -1.5,2.48 -3.3,2.48 -0.37,0 -0.75,-0.08 -1.05,-0.15l-6.6 -1.73c-1.35,-0.37 -3.07,-0.6 -5.17,-0.6 -15.45,0 -26.02,10.73 -26.02,26.32 0,15.23 10.05,25.43 24.97,25.43 8.62,0 15.82,-3.38 20.55,-9.53l-1.43 -1.42c-5.32,5.25 -10.5,7.65 -16.87,7.65 -11.47,0 -18.45,-8.63 -18.45,-22.73 0,-13.94 6.9,-22.72 17.78,-22.72 8.09,0 13.72,4.88 16.12,13.87l1.87 0 -0.67 -16.87 -1.73 0z"/>
    <path id="17" class="fil1" d="M434.3 503.17c-0.52,1.73 -1.5,2.48 -3.3,2.48 -0.37,0 -0.75,-0.08 -1.05,-0.15l-6.6 -1.73c-1.35,-0.37 -3.07,-0.6 -5.17,-0.6 -15.45,0 -26.02,10.73 -26.02,26.32 0,15.23 10.05,25.43 24.97,25.43 8.62,0 15.82,-3.38 20.55,-9.53l-1.43 -1.42c-5.32,5.25 -10.5,7.65 -16.87,7.65 -11.47,0 -18.45,-8.63 -18.45,-22.73 0,-13.94 6.9,-22.72 17.77,-22.72 8.1,0 13.73,4.88 16.13,13.88l1.87 0 -0.67 -16.88 -1.73 0z"/>
    <path id="18" class="fil1" d="M484.32 428.18c-0.52,1.73 -1.5,2.48 -3.3,2.48 -0.37,0 -0.75,-0.08 -1.05,-0.15l-6.6 -1.73c-1.35,-0.37 -3.07,-0.6 -5.17,-0.6 -15.45,0 -26.02,10.73 -26.02,26.32 0,15.23 10.04,25.43 24.97,25.43 8.62,0 15.82,-3.38 20.55,-9.53l-1.43 -1.42c-5.32,5.25 -10.5,7.65 -16.87,7.65 -11.48,0 -18.45,-8.63 -18.45,-22.73 0,-13.94 6.9,-22.72 17.77,-22.72 8.1,0 13.73,4.88 16.13,13.87l1.87 0 -0.67 -16.87 -1.73 0z"/>
    <path id="19" class="fil1" d="M534.34 503.17c-0.53,1.73 -1.5,2.48 -3.3,2.48 -0.38,0 -0.75,-0.08 -1.05,-0.15l-6.6 -1.73c-1.35,-0.37 -3.07,-0.6 -5.17,-0.6 -15.45,0 -26.03,10.73 -26.03,26.32 0,15.23 10.05,25.43 24.98,25.43 8.62,0 15.82,-3.38 20.54,-9.53l-1.42 -1.42c-5.33,5.25 -10.5,7.65 -16.87,7.65 -11.48,0 -18.45,-8.63 -18.45,-22.73 0,-13.94 6.9,-22.72 17.77,-22.72 8.1,0 13.72,4.88 16.12,13.88l1.88 0 -0.68 -16.88 -1.72 0z"/>
    <path id="20" class="fil1" d="M584.36 428.18c-0.53,1.73 -1.5,2.48 -3.3,2.48 -0.38,0 -0.75,-0.08 -1.05,-0.15l-6.6 -1.73c-1.35,-0.37 -3.07,-0.6 -5.17,-0.6 -15.45,0 -26.03,10.73 -26.03,26.32 0,15.23 10.05,25.43 24.98,25.43 8.62,0 15.82,-3.38 20.54,-9.53l-1.42 -1.42c-5.33,5.25 -10.5,7.65 -16.87,7.65 -11.48,0 -18.45,-8.63 -18.45,-22.73 0,-13.94 6.9,-22.72 17.77,-22.72 8.1,0 13.72,4.88 16.12,13.87l1.88 0 -0.68 -16.87 -1.72 0z"/>
    <path id="21" class="fil1" d="M634.38 503.17c-0.53,1.73 -1.5,2.48 -3.3,2.48 -0.38,0 -0.75,-0.08 -1.05,-0.15l-6.6 -1.73c-1.35,-0.37 -3.08,-0.6 -5.18,-0.6 -15.44,0 -26.02,10.73 -26.02,26.32 0,15.23 10.05,25.43 24.97,25.43 8.63,0 15.83,-3.38 20.55,-9.53l-1.42 -1.42c-5.33,5.25 -10.5,7.65 -16.88,7.65 -11.47,0 -18.44,-8.63 -18.44,-22.73 0,-13.94 6.89,-22.72 17.77,-22.72 8.1,0 13.72,4.88 16.12,13.88l1.88 0 -0.68 -16.88 -1.72 0z"/>
    <path id="22" class="fil1" d="M684.39 428.18c-0.52,1.73 -1.49,2.48 -3.29,2.48 -0.38,0 -0.75,-0.08 -1.05,-0.15l-6.6 -1.73c-1.35,-0.37 -3.08,-0.6 -5.18,-0.6 -15.45,0 -26.02,10.73 -26.02,26.32 0,15.23 10.05,25.43 24.97,25.43 8.63,0 15.83,-3.38 20.55,-9.53l-1.43 -1.42c-5.32,5.25 -10.49,7.65 -16.87,7.65 -11.47,0 -18.45,-8.63 -18.45,-22.73 0,-13.94 6.9,-22.72 17.78,-22.72 8.1,0 13.72,4.88 16.12,13.87l1.87 0 -0.67 -16.87 -1.73 0z"/>
    <path id="23" class="fil1" d="M184.21 278.2c-0.53,1.73 -1.5,2.48 -3.3,2.48 -0.38,0 -0.75,-0.08 -1.05,-0.15l-6.6 -1.73c-1.35,-0.37 -3.07,-0.6 -5.17,-0.6 -15.45,0 -26.03,10.72 -26.03,26.32 0,15.23 10.05,25.43 24.98,25.43 8.62,0 15.82,-3.38 20.54,-9.53l-1.42 -1.42c-5.33,5.25 -10.5,7.65 -16.87,7.65 -11.48,0 -18.45,-8.63 -18.45,-22.73 0,-13.95 6.9,-22.72 17.77,-22.72 8.1,0 13.72,4.88 16.12,13.87l1.88 0 -0.68 -16.87 -1.72 0z"/>
    <path id="24" class="fil1" d="M234.23 353.19c-0.53,1.73 -1.5,2.48 -3.3,2.48 -0.38,0 -0.75,-0.08 -1.05,-0.15l-6.6 -1.73c-1.35,-0.37 -3.08,-0.6 -5.18,-0.6 -15.44,0 -26.02,10.73 -26.02,26.32 0,15.23 10.05,25.43 24.97,25.43 8.63,0 15.83,-3.38 20.55,-9.53l-1.42 -1.42c-5.33,5.25 -10.5,7.65 -16.88,7.65 -11.47,0 -18.44,-8.63 -18.44,-22.73 0,-13.94 6.9,-22.72 17.77,-22.72 8.1,0 13.72,4.88 16.12,13.87l1.88 0 -0.68 -16.87 -1.72 0z"/>
    <path id="25" class="fil1" d="M284.25 278.2c-0.53,1.73 -1.5,2.48 -3.3,2.48 -0.38,0 -0.75,-0.08 -1.05,-0.15l-6.6 -1.73c-1.35,-0.37 -3.08,-0.6 -5.18,-0.6 -15.44,0 -26.02,10.72 -26.02,26.32 0,15.23 10.05,25.43 24.97,25.43 8.63,0 15.83,-3.38 20.55,-9.53l-1.42 -1.42c-5.33,5.25 -10.5,7.65 -16.88,7.65 -11.47,0 -18.44,-8.63 -18.44,-22.73 0,-13.95 6.89,-22.72 17.77,-22.72 8.1,0 13.72,4.88 16.12,13.87l1.88 0 -0.68 -16.87 -1.72 0z"/>
    <path id="26" class="fil1" d="M334.27 353.19c-0.53,1.73 -1.5,2.48 -3.3,2.48 -0.38,0 -0.75,-0.08 -1.05,-0.15l-6.6 -1.73c-1.35,-0.37 -3.08,-0.6 -5.18,-0.6 -15.45,0 -26.02,10.73 -26.02,26.32 0,15.23 10.05,25.43 24.97,25.43 8.63,0 15.83,-3.38 20.55,-9.53l-1.43 -1.42c-5.32,5.25 -10.49,7.65 -16.87,7.65 -11.47,0 -18.45,-8.63 -18.45,-22.73 0,-13.94 6.9,-22.72 17.78,-22.72 8.1,0 13.72,4.88 16.12,13.87l1.87 0 -0.67 -16.87 -1.72 0z"/>
    <path id="27" class="fil1" d="M384.28 278.2c-0.52,1.73 -1.5,2.48 -3.3,2.48 -0.37,0 -0.75,-0.08 -1.05,-0.15l-6.6 -1.73c-1.35,-0.37 -3.07,-0.6 -5.17,-0.6 -15.45,0 -26.02,10.72 -26.02,26.32 0,15.23 10.05,25.43 24.97,25.43 8.62,0 15.82,-3.38 20.55,-9.53l-1.43 -1.42c-5.32,5.25 -10.5,7.65 -16.87,7.65 -11.47,0 -18.45,-8.63 -18.45,-22.73 0,-13.95 6.9,-22.72 17.78,-22.72 8.09,0 13.72,4.88 16.12,13.87l1.87 0 -0.67 -16.87 -1.73 0z"/>
    <path id="28" class="fil1" d="M434.3 353.19c-0.52,1.73 -1.5,2.48 -3.3,2.48 -0.37,0 -0.75,-0.08 -1.05,-0.15l-6.6 -1.73c-1.35,-0.37 -3.07,-0.6 -5.17,-0.6 -15.45,0 -26.02,10.73 -26.02,26.32 0,15.23 10.05,25.43 24.97,25.43 8.62,0 15.82,-3.38 20.55,-9.53l-1.43 -1.42c-5.32,5.25 -10.5,7.65 -16.87,7.65 -11.47,0 -18.45,-8.63 -18.45,-22.73 0,-13.94 6.9,-22.72 17.77,-22.72 8.1,0 13.73,4.88 16.13,13.87l1.87 0 -0.67 -16.87 -1.73 0z"/>
    <path id="29" class="fil1" d="M484.32 278.2c-0.52,1.73 -1.5,2.48 -3.3,2.48 -0.37,0 -0.75,-0.08 -1.05,-0.15l-6.6 -1.73c-1.35,-0.37 -3.07,-0.6 -5.17,-0.6 -15.45,0 -26.02,10.72 -26.02,26.32 0,15.23 10.04,25.43 24.97,25.43 8.62,0 15.82,-3.38 20.55,-9.53l-1.43 -1.42c-5.32,5.25 -10.5,7.65 -16.87,7.65 -11.48,0 -18.45,-8.63 -18.45,-22.73 0,-13.95 6.9,-22.72 17.77,-22.72 8.1,0 13.73,4.88 16.13,13.87l1.87 0 -0.67 -16.87 -1.73 0z"/>
    <path id="30" class="fil1" d="M534.34 353.19c-0.53,1.73 -1.5,2.48 -3.3,2.48 -0.38,0 -0.75,-0.08 -1.05,-0.15l-6.6 -1.73c-1.35,-0.37 -3.07,-0.6 -5.17,-0.6 -15.45,0 -26.03,10.73 -26.03,26.32 0,15.23 10.05,25.43 24.98,25.43 8.62,0 15.82,-3.38 20.54,-9.53l-1.42 -1.42c-5.33,5.25 -10.5,7.65 -16.87,7.65 -11.48,0 -18.45,-8.63 -18.45,-22.73 0,-13.94 6.9,-22.72 17.77,-22.72 8.1,0 13.72,4.88 16.12,13.87l1.88 0 -0.68 -16.87 -1.72 0z"/>
    <path id="31" class="fil1" d="M584.36 278.2c-0.53,1.73 -1.5,2.48 -3.3,2.48 -0.38,0 -0.75,-0.08 -1.05,-0.15l-6.6 -1.73c-1.35,-0.37 -3.07,-0.6 -5.17,-0.6 -15.45,0 -26.03,10.72 -26.03,26.32 0,15.23 10.05,25.43 24.98,25.43 8.62,0 15.82,-3.38 20.54,-9.53l-1.42 -1.42c-5.33,5.25 -10.5,7.65 -16.87,7.65 -11.48,0 -18.45,-8.63 -18.45,-22.73 0,-13.95 6.9,-22.72 17.77,-22.72 8.1,0 13.72,4.88 16.12,13.87l1.88 0 -0.68 -16.87 -1.72 0z"/>
    <path id="32" class="fil1" d="M634.38 353.19c-0.53,1.73 -1.5,2.48 -3.3,2.48 -0.38,0 -0.75,-0.08 -1.05,-0.15l-6.6 -1.73c-1.35,-0.37 -3.08,-0.6 -5.18,-0.6 -15.44,0 -26.02,10.73 -26.02,26.32 0,15.23 10.05,25.43 24.97,25.43 8.63,0 15.83,-3.38 20.55,-9.53l-1.42 -1.42c-5.33,5.25 -10.5,7.65 -16.88,7.65 -11.47,0 -18.44,-8.63 -18.44,-22.73 0,-13.94 6.89,-22.72 17.77,-22.72 8.1,0 13.72,4.88 16.12,13.87l1.88 0 -0.68 -16.87 -1.72 0z"/>
    <path id="33" class="fil1" d="M684.39 278.2c-0.52,1.73 -1.49,2.48 -3.29,2.48 -0.38,0 -0.75,-0.08 -1.05,-0.15l-6.6 -1.73c-1.35,-0.37 -3.08,-0.6 -5.18,-0.6 -15.45,0 -26.02,10.72 -26.02,26.32 0,15.23 10.05,25.43 24.97,25.43 8.63,0 15.83,-3.38 20.55,-9.53l-1.43 -1.42c-5.32,5.25 -10.49,7.65 -16.87,7.65 -11.47,0 -18.45,-8.63 -18.45,-22.73 0,-13.95 6.9,-22.72 17.78,-22.72 8.1,0 13.72,4.88 16.12,13.87l1.87 0 -0.67 -16.87 -1.73 0z"/>
    <path id="34" class="fil1" d="M184.21 128.22c-0.53,1.72 -1.5,2.47 -3.3,2.47 -0.38,0 -0.75,-0.07 -1.05,-0.15l-6.6 -1.72c-1.35,-0.37 -3.07,-0.6 -5.17,-0.6 -15.45,0 -26.03,10.72 -26.03,26.32 0,15.23 10.05,25.42 24.98,25.42 8.62,0 15.82,-3.37 20.54,-9.52l-1.42 -1.42c-5.33,5.24 -10.5,7.64 -16.87,7.64 -11.48,0 -18.45,-8.62 -18.45,-22.72 0,-13.95 6.9,-22.72 17.77,-22.72 8.1,0 13.72,4.87 16.12,13.87l1.88 0 -0.68 -16.87 -1.72 0z"/>
    <path id="35" class="fil1" d="M234.23 203.21c-0.53,1.73 -1.5,2.48 -3.3,2.48 -0.38,0 -0.75,-0.08 -1.05,-0.15l-6.6 -1.73c-1.35,-0.37 -3.08,-0.6 -5.18,-0.6 -15.44,0 -26.02,10.72 -26.02,26.32 0,15.23 10.05,25.42 24.97,25.42 8.63,0 15.83,-3.37 20.55,-9.52l-1.42 -1.42c-5.33,5.25 -10.5,7.65 -16.88,7.65 -11.47,0 -18.44,-8.63 -18.44,-22.73 0,-13.95 6.9,-22.72 17.77,-22.72 8.1,0 13.72,4.87 16.12,13.87l1.88 0 -0.68 -16.87 -1.72 0z"/>
    <path id="36" class="fil1" d="M284.25 128.22c-0.53,1.72 -1.5,2.47 -3.3,2.47 -0.38,0 -0.75,-0.07 -1.05,-0.15l-6.6 -1.72c-1.35,-0.37 -3.08,-0.6 -5.18,-0.6 -15.44,0 -26.02,10.72 -26.02,26.32 0,15.23 10.05,25.42 24.97,25.42 8.63,0 15.83,-3.37 20.55,-9.52l-1.42 -1.42c-5.33,5.24 -10.5,7.64 -16.88,7.64 -11.47,0 -18.44,-8.62 -18.44,-22.72 0,-13.95 6.89,-22.72 17.77,-22.72 8.1,0 13.72,4.87 16.12,13.87l1.88 0 -0.68 -16.87 -1.72 0z"/>
    <path id="37" class="fil1" d="M334.27 203.21c-0.53,1.73 -1.5,2.48 -3.3,2.48 -0.38,0 -0.75,-0.08 -1.05,-0.15l-6.6 -1.73c-1.35,-0.37 -3.08,-0.6 -5.18,-0.6 -15.45,0 -26.02,10.72 -26.02,26.32 0,15.23 10.05,25.42 24.97,25.42 8.63,0 15.83,-3.37 20.55,-9.52l-1.43 -1.42c-5.32,5.25 -10.49,7.65 -16.87,7.65 -11.47,0 -18.45,-8.63 -18.45,-22.73 0,-13.95 6.9,-22.72 17.78,-22.72 8.1,0 13.72,4.87 16.12,13.87l1.87 0 -0.67 -16.87 -1.72 0z"/>
    <path id="38" class="fil1" d="M384.28 128.22c-0.52,1.72 -1.5,2.47 -3.3,2.47 -0.37,0 -0.75,-0.07 -1.05,-0.15l-6.6 -1.72c-1.35,-0.37 -3.07,-0.6 -5.17,-0.6 -15.45,0 -26.02,10.72 -26.02,26.32 0,15.23 10.05,25.42 24.97,25.42 8.62,0 15.82,-3.37 20.55,-9.52l-1.43 -1.42c-5.32,5.24 -10.5,7.64 -16.87,7.64 -11.47,0 -18.45,-8.62 -18.45,-22.72 0,-13.95 6.9,-22.72 17.78,-22.72 8.09,0 13.72,4.87 16.12,13.87l1.87 0 -0.67 -16.87 -1.73 0z"/>
    <path id="39" class="fil1" d="M434.3 203.21c-0.52,1.73 -1.5,2.48 -3.3,2.48 -0.37,0 -0.75,-0.08 -1.05,-0.15l-6.6 -1.73c-1.35,-0.37 -3.07,-0.6 -5.17,-0.6 -15.45,0 -26.02,10.72 -26.02,26.32 0,15.23 10.05,25.42 24.97,25.42 8.62,0 15.82,-3.37 20.55,-9.52l-1.43 -1.42c-5.32,5.25 -10.5,7.65 -16.87,7.65 -11.47,0 -18.45,-8.63 -18.45,-22.73 0,-13.95 6.9,-22.72 17.77,-22.72 8.1,0 13.73,4.87 16.13,13.87l1.87 0 -0.67 -16.87 -1.73 0z"/>
    <path id="40" class="fil1" d="M484.32 128.22c-0.52,1.72 -1.5,2.47 -3.3,2.47 -0.37,0 -0.75,-0.07 -1.05,-0.15l-6.6 -1.72c-1.35,-0.37 -3.07,-0.6 -5.17,-0.6 -15.45,0 -26.02,10.72 -26.02,26.32 0,15.23 10.04,25.42 24.97,25.42 8.62,0 15.82,-3.37 20.55,-9.52l-1.43 -1.42c-5.32,5.24 -10.5,7.64 -16.87,7.64 -11.48,0 -18.45,-8.62 -18.45,-22.72 0,-13.95 6.9,-22.72 17.77,-22.72 8.1,0 13.73,4.87 16.13,13.87l1.87 0 -0.67 -16.87 -1.73 0z"/>
    <path id="41" class="fil1" d="M534.34 203.21c-0.53,1.73 -1.5,2.48 -3.3,2.48 -0.38,0 -0.75,-0.08 -1.05,-0.15l-6.6 -1.73c-1.35,-0.37 -3.07,-0.6 -5.17,-0.6 -15.45,0 -26.03,10.72 -26.03,26.32 0,15.23 10.05,25.42 24.98,25.42 8.62,0 15.82,-3.37 20.54,-9.52l-1.42 -1.42c-5.33,5.25 -10.5,7.65 -16.87,7.65 -11.48,0 -18.45,-8.63 -18.45,-22.73 0,-13.95 6.9,-22.72 17.77,-22.72 8.1,0 13.72,4.87 16.12,13.87l1.88 0 -0.68 -16.87 -1.72 0z"/>
    <path id="42" class="fil1" d="M584.36 128.22c-0.53,1.72 -1.5,2.47 -3.3,2.47 -0.38,0 -0.75,-0.07 -1.05,-0.15l-6.6 -1.72c-1.35,-0.37 -3.07,-0.6 -5.17,-0.6 -15.45,0 -26.03,10.72 -26.03,26.32 0,15.23 10.05,25.42 24.98,25.42 8.62,0 15.82,-3.37 20.54,-9.52l-1.42 -1.42c-5.33,5.24 -10.5,7.64 -16.87,7.64 -11.48,0 -18.45,-8.62 -18.45,-22.72 0,-13.95 6.9,-22.72 17.77,-22.72 8.1,0 13.72,4.87 16.12,13.87l1.88 0 -0.68 -16.87 -1.72 0z"/>
    <path id="43" class="fil1" d="M634.38 203.21c-0.53,1.73 -1.5,2.48 -3.3,2.48 -0.38,0 -0.75,-0.08 -1.05,-0.15l-6.6 -1.73c-1.35,-0.37 -3.08,-0.6 -5.18,-0.6 -15.44,0 -26.02,10.72 -26.02,26.32 0,15.23 10.05,25.42 24.97,25.42 8.63,0 15.83,-3.37 20.55,-9.52l-1.42 -1.42c-5.33,5.25 -10.5,7.65 -16.88,7.65 -11.47,0 -18.44,-8.63 -18.44,-22.73 0,-13.95 6.89,-22.72 17.77,-22.72 8.1,0 13.72,4.87 16.12,13.87l1.88 0 -0.68 -16.87 -1.72 0z"/>
    <path id="44" class="fil1" d="M684.39 128.22c-0.52,1.72 -1.49,2.47 -3.29,2.47 -0.38,0 -0.75,-0.07 -1.05,-0.15l-6.6 -1.72c-1.35,-0.37 -3.08,-0.6 -5.18,-0.6 -15.45,0 -26.02,10.72 -26.02,26.32 0,15.23 10.05,25.42 24.97,25.42 8.63,0 15.83,-3.37 20.55,-9.52l-1.43 -1.42c-5.32,5.24 -10.49,7.64 -16.87,7.64 -11.47,0 -18.45,-8.62 -18.45,-22.72 0,-13.95 6.9,-22.72 17.78,-22.72 8.1,0 13.72,4.87 16.12,13.87l1.87 0 -0.67 -16.87 -1.73 0z"/>
    <path id="45" class="fil1" d="M184.21 -21.76c-0.53,1.72 -1.5,2.47 -3.3,2.47 -0.38,0 -0.75,-0.07 -1.05,-0.15l-6.6 -1.72c-1.35,-0.38 -3.07,-0.6 -5.17,-0.6 -15.45,0 -26.03,10.72 -26.03,26.32 0,15.22 10.05,25.42 24.98,25.42 8.62,0 15.82,-3.37 20.54,-9.52l-1.42 -1.43c-5.33,5.25 -10.5,7.65 -16.87,7.65 -11.48,0 -18.45,-8.62 -18.45,-22.72 0,-13.95 6.9,-22.72 17.77,-22.72 8.1,0 13.72,4.87 16.12,13.87l1.88 0 -0.68 -16.87 -1.72 0z"/>
    <path id="46" class="fil1" d="M234.23 53.23c-0.53,1.72 -1.5,2.47 -3.3,2.47 -0.38,0 -0.75,-0.07 -1.05,-0.15l-6.6 -1.72c-1.35,-0.38 -3.08,-0.6 -5.18,-0.6 -15.44,0 -26.02,10.72 -26.02,26.32 0,15.22 10.05,25.42 24.97,25.42 8.63,0 15.83,-3.37 20.55,-9.52l-1.42 -1.42c-5.33,5.24 -10.5,7.64 -16.88,7.64 -11.47,0 -18.44,-8.62 -18.44,-22.72 0,-13.95 6.9,-22.72 17.77,-22.72 8.1,0 13.72,4.87 16.12,13.87l1.88 0 -0.68 -16.87 -1.72 0z"/>
    <path id="47" class="fil1" d="M284.25 -21.76c-0.53,1.72 -1.5,2.47 -3.3,2.47 -0.38,0 -0.75,-0.07 -1.05,-0.15l-6.6 -1.72c-1.35,-0.38 -3.08,-0.6 -5.18,-0.6 -15.44,0 -26.02,10.72 -26.02,26.32 0,15.22 10.05,25.42 24.97,25.42 8.63,0 15.83,-3.37 20.55,-9.52l-1.42 -1.43c-5.33,5.25 -10.5,7.65 -16.88,7.65 -11.47,0 -18.44,-8.62 -18.44,-22.72 0,-13.95 6.89,-22.72 17.77,-22.72 8.1,0 13.72,4.87 16.12,13.87l1.88 0 -0.68 -16.87 -1.72 0z"/>
    <path id="48" class="fil1" d="M334.27 53.23c-0.53,1.72 -1.5,2.47 -3.3,2.47 -0.38,0 -0.75,-0.07 -1.05,-0.15l-6.6 -1.72c-1.35,-0.38 -3.08,-0.6 -5.18,-0.6 -15.45,0 -26.02,10.72 -26.02,26.32 0,15.22 10.05,25.42 24.97,25.42 8.63,0 15.83,-3.37 20.55,-9.52l-1.43 -1.42c-5.32,5.24 -10.49,7.64 -16.87,7.64 -11.47,0 -18.45,-8.62 -18.45,-22.72 0,-13.95 6.9,-22.72 17.78,-22.72 8.1,0 13.72,4.87 16.12,13.87l1.87 0 -0.67 -16.87 -1.72 0z"/>
    <path id="49" class="fil1" d="M384.28 -21.76c-0.52,1.72 -1.5,2.47 -3.3,2.47 -0.37,0 -0.75,-0.07 -1.05,-0.15l-6.6 -1.72c-1.35,-0.38 -3.07,-0.6 -5.17,-0.6 -15.45,0 -26.02,10.72 -26.02,26.32 0,15.22 10.05,25.42 24.97,25.42 8.62,0 15.82,-3.37 20.55,-9.52l-1.43 -1.43c-5.32,5.25 -10.5,7.65 -16.87,7.65 -11.47,0 -18.45,-8.62 -18.45,-22.72 0,-13.95 6.9,-22.72 17.78,-22.72 8.09,0 13.72,4.87 16.12,13.87l1.87 0 -0.67 -16.87 -1.73 0z"/>
    <path id="50" class="fil1" d="M434.3 53.23c-0.52,1.72 -1.5,2.47 -3.3,2.47 -0.37,0 -0.75,-0.07 -1.05,-0.15l-6.6 -1.72c-1.35,-0.38 -3.07,-0.6 -5.17,-0.6 -15.45,0 -26.02,10.72 -26.02,26.32 0,15.22 10.05,25.42 24.97,25.42 8.62,0 15.82,-3.37 20.55,-9.52l-1.43 -1.42c-5.32,5.24 -10.5,7.64 -16.87,7.64 -11.47,0 -18.45,-8.62 -18.45,-22.72 0,-13.95 6.9,-22.72 17.77,-22.72 8.1,0 13.73,4.87 16.13,13.87l1.87 0 -0.67 -16.87 -1.73 0z"/>
    <path id="51" class="fil1" d="M484.32 -21.76c-0.52,1.72 -1.5,2.47 -3.3,2.47 -0.37,0 -0.75,-0.07 -1.05,-0.15l-6.6 -1.72c-1.35,-0.38 -3.07,-0.6 -5.17,-0.6 -15.45,0 -26.02,10.72 -26.02,26.32 0,15.22 10.04,25.42 24.97,25.42 8.62,0 15.82,-3.37 20.55,-9.52l-1.43 -1.43c-5.32,5.25 -10.5,7.65 -16.87,7.65 -11.48,0 -18.45,-8.62 -18.45,-22.72 0,-13.95 6.9,-22.72 17.77,-22.72 8.1,0 13.73,4.87 16.13,13.87l1.87 0 -0.67 -16.87 -1.73 0z"/>
    <path id="52" class="fil1" d="M534.34 53.23c-0.53,1.72 -1.5,2.47 -3.3,2.47 -0.38,0 -0.75,-0.07 -1.05,-0.15l-6.6 -1.72c-1.35,-0.38 -3.07,-0.6 -5.17,-0.6 -15.45,0 -26.03,10.72 -26.03,26.32 0,15.22 10.05,25.42 24.98,25.42 8.62,0 15.82,-3.37 20.54,-9.52l-1.42 -1.42c-5.33,5.24 -10.5,7.64 -16.87,7.64 -11.48,0 -18.45,-8.62 -18.45,-22.72 0,-13.95 6.9,-22.72 17.77,-22.72 8.1,0 13.72,4.87 16.12,13.87l1.88 0 -0.68 -16.87 -1.72 0z"/>
    <path id="53" class="fil1" d="M584.36 -21.76c-0.53,1.72 -1.5,2.47 -3.3,2.47 -0.38,0 -0.75,-0.07 -1.05,-0.15l-6.6 -1.72c-1.35,-0.38 -3.07,-0.6 -5.17,-0.6 -15.45,0 -26.03,10.72 -26.03,26.32 0,15.22 10.05,25.42 24.98,25.42 8.62,0 15.82,-3.37 20.54,-9.52l-1.42 -1.43c-5.33,5.25 -10.5,7.65 -16.87,7.65 -11.48,0 -18.45,-8.62 -18.45,-22.72 0,-13.95 6.9,-22.72 17.77,-22.72 8.1,0 13.72,4.87 16.12,13.87l1.88 0 -0.68 -16.87 -1.72 0z"/>
    <path id="54" class="fil1" d="M634.38 53.23c-0.53,1.72 -1.5,2.47 -3.3,2.47 -0.38,0 -0.75,-0.07 -1.05,-0.15l-6.6 -1.72c-1.35,-0.38 -3.08,-0.6 -5.18,-0.6 -15.44,0 -26.02,10.72 -26.02,26.32 0,15.22 10.05,25.42 24.97,25.42 8.63,0 15.83,-3.37 20.55,-9.52l-1.42 -1.42c-5.33,5.24 -10.5,7.64 -16.88,7.64 -11.47,0 -18.44,-8.62 -18.44,-22.72 0,-13.95 6.89,-22.72 17.77,-22.72 8.1,0 13.72,4.87 16.12,13.87l1.88 0 -0.68 -16.87 -1.72 0z"/>
    <path id="55" class="fil1" d="M684.39 -21.76c-0.52,1.72 -1.49,2.47 -3.29,2.47 -0.38,0 -0.75,-0.07 -1.05,-0.15l-6.6 -1.72c-1.35,-0.38 -3.08,-0.6 -5.18,-0.6 -15.45,0 -26.02,10.72 -26.02,26.32 0,15.22 10.05,25.42 24.97,25.42 8.63,0 15.83,-3.37 20.55,-9.52l-1.43 -1.43c-5.32,5.25 -10.49,7.65 -16.87,7.65 -11.47,0 -18.45,-8.62 -18.45,-22.72 0,-13.95 6.9,-22.72 17.78,-22.72 8.1,0 13.72,4.87 16.12,13.87l1.87 0 -0.67 -16.87 -1.73 0z"/>
   </g>
   <g style="clip-path:url(#id2)">
   </g>
   <polygon id="56" class="fil2 str0" points="144.6,99.38 673.81,99.38 673.81,624.31 144.6,624.31 "/>
  </g>
 </g>
</svg>
