<?xml version="1.0" encoding="UTF-8"?>
<!DOCTYPE svg PUBLIC "-//W3C//DTD SVG 1.1//EN" "http://www.w3.org/Graphics/SVG/1.1/DTD/svg11.dtd">
<!-- Creator: CorelDRAW 2020 (64-Bit Оценочная версия) -->
<svg xmlns="http://www.w3.org/2000/svg" xml:space="preserve" width="500px" height="707px" version="1.1" style="shape-rendering:geometricPrecision; text-rendering:geometricPrecision; image-rendering:optimizeQuality; fill-rule:evenodd; clip-rule:evenodd"
viewBox="0 0 500 707.14"
 xmlns:xlink="http://www.w3.org/1999/xlink"
 xmlns:xodm="http://www.corel.com/coreldraw/odm/2003">
 <defs>
  <style type="text/css">
   <![CDATA[
    .str0 {stroke:#2B2A29;stroke-width:0.48;stroke-miterlimit:22.9256}
    .fil0 {fill:#2B2A29}
    .fil1 {fill:#FFED00}
    .fil2 {fill:#FFED00;fill-rule:nonzero}
   ]]>
  </style>
 </defs>
 <g id="Слой_x0020_1">
  <metadata id="CorelCorpID_0Corel-Layer"/>
  <g id="_1565521612448">
   <path class="fil0" d="M90.94 12.92l32.51 -2.54 13.79 10.98 0 95.5c0.07,0.65 1.9,18.91 -5.07,30.87 -7.1,12.17 -27.7,11.71 -27.93,11.71l-31.99 0 -13.79 -10.99c0,-5.7 0,-11.4 0,-17.11 10.13,0.17 20.38,0.51 30.49,0.51 4.84,0.23 9.48,-0.4 10.85,-15.43 1.38,-15.23 -0.59,-45.07 -9.08,-103.23l-0.04 -0.25 0.26 -0.02z"/>
  </g>
  <path class="fil1 str0" d="M90.95 13.15l32.26 -2.52 0 95.25c0,0 2.01,18.65 -5.04,30.75 -7.06,12.09 -27.72,11.59 -27.72,11.59l-31.75 0 0 -16.63 30.24 0.5c9.92,0.47 18.99,-2.57 2.01,-118.94z"/>
  <g id="_1565521612784">
   <path class="fil0" d="M145.19 132.5l8.39 -0.76 6.32 3.1c0.4,3.39 1.32,6.17 2.78,8.35 0.78,1.16 1.79,2.2 3.02,3.12 2.39,0.71 4.99,1.07 7.79,1.07 3.41,0 6.41,-0.5 9.01,-1.52 2.61,-1.02 4.54,-2.42 5.81,-4.19 1.28,-1.78 1.92,-3.71 1.92,-5.78 0,-2.1 -0.61,-3.94 -1.84,-5.53 -0.4,-0.51 -0.88,-0.99 -1.44,-1.45 -2.18,-0.67 -5.62,-1.58 -10.32,-2.71 -5.81,-1.4 -9.98,-2.71 -12.53,-3.95 -2.1,-1.04 -4.21,-2.07 -6.32,-3.1 -0.17,-0.08 -0.34,-0.17 -0.5,-0.25 -3.22,-1.7 -5.6,-3.8 -7.17,-6.3 -1.59,-2.5 -2.37,-5.31 -2.37,-8.4 0,-3.42 0.97,-6.61 2.9,-9.56 1.93,-2.97 4.74,-5.22 8.46,-6.76 3.71,-1.54 7.84,-2.31 12.38,-2.31 4.99,0 9.41,0.81 13.22,2.42 0.42,0.18 0.84,0.37 1.24,0.56l6.32 3.1c3.22,1.57 5.75,3.76 7.58,6.55 2.05,3.13 3.15,6.68 3.31,10.63l-8.57 0.66 -6.33 -3.09c-0.43,-3.99 -1.82,-7.07 -4.18,-9.23 -1.75,-0.39 -3.72,-0.59 -5.92,-0.59 -5.4,0 -9.34,0.99 -11.81,2.97 -2.46,1.98 -3.7,4.37 -3.7,7.16 0,2.3 0.79,4.21 2.36,5.74 2.02,0.65 4.48,1.3 7.39,1.96 7.26,1.65 12.23,3.07 14.93,4.3 0.22,0.1 0.44,0.2 0.65,0.31l6.32 3.09c3.59,1.76 6.28,3.93 8.04,6.56 1.87,2.76 2.8,5.95 2.8,9.56 0,3.6 -1.02,6.96 -3.08,10.13 -2.06,3.17 -4.99,5.64 -8.84,7.4 -3.85,1.76 -8.17,2.63 -12.99,2.63 -6.09,0 -11.19,-0.89 -15.31,-2.66 -0.38,-0.17 -0.75,-0.34 -1.11,-0.52l-6.32 -3.09c-0.01,-0.01 -0.03,-0.01 -0.04,-0.02 -3.58,-1.76 -6.42,-4.25 -8.54,-7.49 -2.36,-3.57 -3.58,-7.61 -3.71,-12.11zm141.69 -14.9l-1.56 -0.77c-1.49,-0.62 -2.98,-0.93 -4.47,-0.93 -1.8,0 -3.42,0.55 -4.85,1.63 -1.43,1.09 -2.45,2.59 -3.06,4.53 -0.93,2.93 -1.38,6.15 -1.38,9.65l0 25.55 -8.29 0 -6.33 -3.09 0 -48.9 7.44 0 3.84 1.88c0.49,-0.52 0.97,-0.94 1.44,-1.25 1.62,-1.12 3.39,-1.67 5.32,-1.67 2.25,0 4.53,0.57 6.84,1.7l6.33 3.09c0.08,0.05 0.17,0.09 0.26,0.14l0 -3.89 8.29 0 6.33 3.09 0 48.9 -8.29 0 -6.33 -3.09 0 -40.53 -1.53 3.96zm28.79 58.41l8.29 0 0 -22.09 5.83 2.86c2.08,1.01 4.42,1.52 7,1.52 3.77,0 7.37,-1.07 10.77,-3.19 3.43,-2.13 6.03,-5.2 7.82,-9.18 1.79,-4.01 2.69,-8.5 2.69,-13.48 0,-4.66 -0.82,-8.93 -2.43,-12.84 -1.64,-3.9 -4.04,-6.93 -7.23,-9.07 -0.71,-0.48 -1.45,-0.9 -2.21,-1.28l-6.33 -3.09c-2.64,-1.3 -5.58,-1.94 -8.82,-1.94 -3.19,0 -5.91,0.63 -8.14,1.87 -0.64,0.35 -1.26,0.76 -1.86,1.21l-4.17 -2.04 -7.54 0 0 67.65 6.33 3.09zm41.37 -64.34l6.12 3 0 25.18c0,4.97 0.33,8.24 1.01,9.8 0.67,1.55 1.83,2.79 3.48,3.75 0.15,0.08 0.3,0.17 0.46,0.24l6.33 3.1c1.62,0.79 3.79,1.18 6.53,1.18 1.82,0 3.91,-0.25 6.23,-0.73l-1.13 -7.32 -6.33 -3.1c-0.64,0.1 -1.23,0.17 -1.77,0.23 -0.13,-0.83 -0.19,-2.02 -0.19,-3.59l0 -28.64 8.29 0 0 -6.41 -6.33 -3.09 -1.96 0 0 -13.98 -6.33 -3.09 -8.29 4.98 0 12.09 -6.12 0 0 6.4zm-33.83 21.44c0,-6.28 1.35,-11.05 4.06,-14.35 2.71,-3.28 5.82,-4.93 9.33,-4.93 0.51,0 1,0.03 1.48,0.09 0.47,0.44 0.92,0.92 1.35,1.44 2.56,3.1 3.83,7.75 3.83,13.97 0,6.51 -1.3,11.32 -3.92,14.43 -2.61,3.11 -5.75,4.66 -9.42,4.66 -0.58,0 -1.13,-0.04 -1.68,-0.11 -0.42,-0.4 -0.83,-0.83 -1.23,-1.3 -2.53,-3 -3.8,-7.63 -3.8,-13.9zm-34.8 -36.98l0 -9.43 8.29 0 6.33 3.1 0 9.42 -8.29 0 -6.33 -3.09zm-46.55 40.14l8.11 1.13 6.32 3.09c-0.89,5.58 -3.15,9.93 -6.81,13.08 -3.66,3.16 -8.17,4.73 -13.49,4.73 -3.86,0 -7.29,-0.73 -10.27,-2.19l-6.33 -3.1c-2.17,-1.06 -4.12,-2.51 -5.82,-4.35 -4.07,-4.37 -6.1,-10.62 -6.1,-18.75 0,-5.28 0.88,-9.88 2.63,-13.84 1.74,-3.94 4.39,-6.91 7.97,-8.87 3.57,-1.98 7.45,-2.97 11.65,-2.97 3.79,0 7.09,0.68 9.9,2.06l6.33 3.09c1.11,0.55 2.15,1.2 3.1,1.97 3.38,2.68 5.55,6.5 6.49,11.43l-8.01 1.22 -6.33 -3.09c-0.66,-2.85 -1.77,-5.09 -3.34,-6.72 -0.48,-0.05 -0.97,-0.08 -1.48,-0.08 -4.18,0 -7.57,1.49 -10.19,4.48 -2.61,2.99 -3.91,7.71 -3.91,14.18 0,6.56 1.25,11.32 3.77,14.29 0.36,0.42 0.73,0.81 1.12,1.17 0.77,0.13 1.57,0.19 2.4,0.19 3.26,0 5.98,-0.99 8.15,-2.98 2.18,-1.98 3.56,-5.04 4.14,-9.17z"/>
  </g>
  <path class="fil2" d="M145.19 132.5l8.39 -0.76c0.39,3.4 1.32,6.18 2.78,8.36 1.46,2.17 3.72,3.92 6.78,5.27 3.06,1.34 6.52,2.01 10.35,2.01 3.41,0 6.41,-0.5 9.01,-1.52 2.61,-1.02 4.54,-2.42 5.81,-4.19 1.28,-1.78 1.92,-3.71 1.92,-5.78 0,-2.1 -0.61,-3.94 -1.84,-5.53 -1.22,-1.57 -3.25,-2.89 -6.08,-3.97 -1.8,-0.69 -5.81,-1.79 -12.01,-3.28 -6.2,-1.5 -10.54,-2.89 -13.02,-4.21 -3.22,-1.7 -5.6,-3.8 -7.17,-6.3 -1.59,-2.5 -2.37,-5.31 -2.37,-8.4 0,-3.42 0.97,-6.61 2.9,-9.56 1.93,-2.97 4.74,-5.22 8.46,-6.76 3.71,-1.54 7.84,-2.31 12.38,-2.31 4.99,0 9.41,0.81 13.22,2.42 3.82,1.6 6.75,3.98 8.81,7.12 2.06,3.12 3.16,6.67 3.32,10.63l-8.58 0.66c-0.45,-4.26 -2.01,-7.48 -4.66,-9.64 -2.66,-2.19 -6.58,-3.27 -11.77,-3.27 -5.4,0 -9.34,0.99 -11.8,2.97 -2.47,1.98 -3.71,4.36 -3.71,7.16 0,2.42 0.88,4.41 2.62,5.98 1.73,1.56 6.2,3.17 13.46,4.81 7.26,1.65 12.23,3.07 14.93,4.3 3.91,1.81 6.82,4.08 8.69,6.86 1.87,2.77 2.79,5.95 2.79,9.57 0,3.59 -1.02,6.95 -3.07,10.12 -2.06,3.18 -5,5.64 -8.85,7.4 -3.84,1.76 -8.16,2.64 -12.98,2.64 -6.1,0 -11.2,-0.9 -15.31,-2.67 -4.13,-1.77 -7.35,-4.44 -9.69,-8.02 -2.36,-3.57 -3.58,-7.61 -3.71,-12.11zm96.67 3.77l8.11 1.13c-0.9,5.57 -3.16,9.92 -6.82,13.08 -3.66,3.15 -8.16,4.73 -13.49,4.73 -6.67,0 -12.04,-2.19 -16.09,-6.55 -4.07,-4.37 -6.1,-10.62 -6.1,-18.75 0,-5.28 0.88,-9.88 2.63,-13.84 1.74,-3.94 4.39,-6.91 7.97,-8.87 3.57,-1.98 7.45,-2.97 11.65,-2.97 5.3,0 9.65,1.34 13.01,4.02 3.37,2.69 5.54,6.5 6.48,11.43l-8.01 1.23c-0.77,-3.28 -2.12,-5.75 -4.08,-7.41 -1.95,-1.65 -4.3,-2.49 -7.07,-2.49 -4.17,0 -7.56,1.5 -10.19,4.48 -2.6,3 -3.91,7.71 -3.91,14.18 0,6.56 1.26,11.32 3.77,14.29 2.53,2.97 5.81,4.46 9.85,4.46 3.26,0 5.98,-0.99 8.15,-2.98 2.18,-1.98 3.56,-5.04 4.14,-9.17zm15.08 17.9l0 -48.9 7.44 0 0 7.49c1.9,-3.47 3.66,-5.77 5.28,-6.86 1.62,-1.12 3.39,-1.67 5.32,-1.67 2.8,0 5.64,0.88 8.53,2.62l-2.95 7.65c-2.01,-1.13 -4.02,-1.7 -6.03,-1.7 -1.81,0 -3.43,0.55 -4.85,1.64 -1.43,1.08 -2.45,2.59 -3.07,4.52 -0.92,2.94 -1.38,6.16 -1.38,9.66l0 25.55 -8.29 0zm31.47 -58.04l0 -9.43 8.29 0 0 9.43 -8.29 0zm0 58.04l0 -48.9 8.29 0 0 48.9 -8.29 0zm20.93 18.75l0 -67.65 7.54 0 0 6.42c1.78,-2.48 3.79,-4.35 6.03,-5.59 2.23,-1.24 4.95,-1.87 8.14,-1.87 4.17,0 7.85,1.07 11.04,3.22 3.18,2.14 5.59,5.17 7.22,9.06 1.62,3.91 2.43,8.18 2.43,12.85 0,4.97 -0.89,9.47 -2.68,13.47 -1.79,3.99 -4.4,7.05 -7.82,9.19 -3.41,2.12 -7.01,3.19 -10.77,3.19 -2.77,0 -5.25,-0.59 -7.43,-1.75 -2.2,-1.16 -3.99,-2.62 -5.4,-4.39l0 23.85 -8.3 0zm7.54 -42.9c0,6.26 1.27,10.89 3.8,13.89 2.55,3 5.62,4.51 9.24,4.51 3.67,0 6.81,-1.55 9.42,-4.66 2.62,-3.11 3.92,-7.92 3.92,-14.43 0,-6.22 -1.27,-10.87 -3.83,-13.97 -2.56,-3.09 -5.6,-4.63 -9.15,-4.63 -3.52,0 -6.63,1.65 -9.33,4.93 -2.72,3.3 -4.07,8.07 -4.07,14.36zm62.86 16.75l1.13 7.32c-2.32,0.49 -4.41,0.74 -6.23,0.74 -3,0 -5.32,-0.47 -6.99,-1.43 -1.65,-0.96 -2.81,-2.2 -3.48,-3.75 -0.68,-1.56 -1.01,-4.83 -1.01,-9.8l0 -28.18 -6.12 0 0 -6.4 6.12 0 0 -12.09 8.29 -4.98 0 17.07 8.29 0 0 6.4 -8.29 0 0 28.65c0,2.37 0.14,3.89 0.44,4.57 0.28,0.67 0.76,1.21 1.42,1.62 0.66,0.39 1.6,0.59 2.82,0.59 0.91,0 2.12,-0.11 3.61,-0.33z"/>
 </g>
</svg>
